<mxfile host="app.diagrams.net" modified="2023-01-22T01:24:21.965Z" agent="5.0 (Macintosh; Intel Mac OS X 10_15_7) AppleWebKit/537.36 (KHTML, like Gecko) Chrome/109.0.0.0 Safari/537.36" etag="okU31nIDkRzIrIb_EFr8" version="20.8.10" type="github">
  <diagram name="Page-1" id="rZhJzstKzVS4UUGm5IOt">
    <mxGraphModel dx="1194" dy="692" grid="1" gridSize="10" guides="1" tooltips="1" connect="1" arrows="1" fold="1" page="1" pageScale="1" pageWidth="1100" pageHeight="850" math="0" shadow="0">
      <root>
        <mxCell id="0" />
        <mxCell id="1" parent="0" />
        <mxCell id="zCoC9xgb5z22_oZQfRep-2" value="" style="rounded=0;whiteSpace=wrap;html=1;fillColor=#fff2cc;strokeColor=#d6b656;" vertex="1" parent="1">
          <mxGeometry x="120" y="670" width="910" height="120" as="geometry" />
        </mxCell>
        <mxCell id="zCoC9xgb5z22_oZQfRep-4" value="Peer-to-peer (P2P) internet Overlay Protocol" style="rounded=0;whiteSpace=wrap;html=1;" vertex="1" parent="1">
          <mxGeometry x="130" y="680" width="440" height="100" as="geometry" />
        </mxCell>
        <mxCell id="zCoC9xgb5z22_oZQfRep-5" value="Platform-neutral Computational Description Language" style="rounded=0;whiteSpace=wrap;html=1;" vertex="1" parent="1">
          <mxGeometry x="580" y="680" width="440" height="100" as="geometry" />
        </mxCell>
        <mxCell id="zCoC9xgb5z22_oZQfRep-6" value="1" style="ellipse;whiteSpace=wrap;html=1;aspect=fixed;fillColor=#d5e8d4;strokeColor=#82b366;fontStyle=1;strokeWidth=2;" vertex="1" parent="1">
          <mxGeometry x="520" y="700" width="30" height="30" as="geometry" />
        </mxCell>
        <mxCell id="zCoC9xgb5z22_oZQfRep-7" value="2" style="ellipse;whiteSpace=wrap;html=1;aspect=fixed;fillColor=#d5e8d4;strokeColor=#82b366;fontStyle=1;strokeWidth=2;" vertex="1" parent="1">
          <mxGeometry x="980" y="690" width="30" height="30" as="geometry" />
        </mxCell>
        <mxCell id="zCoC9xgb5z22_oZQfRep-8" value="" style="rounded=0;whiteSpace=wrap;html=1;strokeWidth=2;fillColor=#fff2cc;strokeColor=#d6b656;" vertex="1" parent="1">
          <mxGeometry x="120" y="510" width="910" height="150" as="geometry" />
        </mxCell>
        <mxCell id="zCoC9xgb5z22_oZQfRep-17" value="Zero Trust Interaction Protocol" style="rounded=0;whiteSpace=wrap;html=1;strokeWidth=0;strokeColor=none;" vertex="1" parent="1">
          <mxGeometry x="130" y="520" width="230" height="130" as="geometry" />
        </mxCell>
        <mxCell id="zCoC9xgb5z22_oZQfRep-18" value="" style="rounded=0;whiteSpace=wrap;html=1;strokeWidth=0;strokeColor=none;" vertex="1" parent="1">
          <mxGeometry x="360" y="520" width="480" height="50" as="geometry" />
        </mxCell>
        <mxCell id="zCoC9xgb5z22_oZQfRep-19" value="Data Distribution Protocols" style="rounded=0;whiteSpace=wrap;html=1;strokeColor=#000000;strokeWidth=0;" vertex="1" parent="1">
          <mxGeometry x="370" y="580" width="130" height="70" as="geometry" />
        </mxCell>
        <mxCell id="zCoC9xgb5z22_oZQfRep-21" value="Zero Trust Interaction Protocol" style="rounded=0;whiteSpace=wrap;html=1;strokeColor=#000000;strokeWidth=0;" vertex="1" parent="1">
          <mxGeometry x="510" y="580" width="330" height="70" as="geometry" />
        </mxCell>
        <mxCell id="zCoC9xgb5z22_oZQfRep-22" value="" style="shape=partialRectangle;whiteSpace=wrap;html=1;bottom=0;right=0;fillColor=none;strokeColor=#000000;strokeWidth=2;" vertex="1" parent="1">
          <mxGeometry x="130" y="520" width="710" height="130" as="geometry" />
        </mxCell>
        <mxCell id="zCoC9xgb5z22_oZQfRep-23" value="" style="shape=partialRectangle;whiteSpace=wrap;html=1;top=0;left=0;fillColor=none;strokeColor=#000000;strokeWidth=2;" vertex="1" parent="1">
          <mxGeometry x="360" y="520" width="480" height="50" as="geometry" />
        </mxCell>
        <mxCell id="zCoC9xgb5z22_oZQfRep-24" value="" style="shape=partialRectangle;whiteSpace=wrap;html=1;top=0;left=0;fillColor=none;strokeColor=#000000;strokeWidth=2;" vertex="1" parent="1">
          <mxGeometry x="130" y="570" width="230" height="80" as="geometry" />
        </mxCell>
        <mxCell id="zCoC9xgb5z22_oZQfRep-25" value="&lt;b&gt;&lt;font color=&quot;#c4c4c4&quot; style=&quot;font-size: 48px;&quot;&gt;L0&lt;/font&gt;&lt;/b&gt;" style="text;strokeColor=none;align=center;fillColor=none;html=1;verticalAlign=middle;whiteSpace=wrap;rounded=0;" vertex="1" parent="1">
          <mxGeometry x="40" y="715" width="60" height="30" as="geometry" />
        </mxCell>
        <mxCell id="zCoC9xgb5z22_oZQfRep-27" value="&lt;b&gt;&lt;font color=&quot;#c4c4c4&quot; style=&quot;font-size: 48px;&quot;&gt;L1&lt;/font&gt;&lt;/b&gt;" style="text;strokeColor=none;align=center;fillColor=none;html=1;verticalAlign=middle;whiteSpace=wrap;rounded=0;" vertex="1" parent="1">
          <mxGeometry x="40" y="570" width="60" height="30" as="geometry" />
        </mxCell>
        <mxCell id="zCoC9xgb5z22_oZQfRep-33" value="&lt;meta charset=&quot;utf-8&quot;&gt;&lt;span style=&quot;color: rgb(0, 0, 0); font-family: Helvetica; font-size: 12px; font-style: normal; font-variant-ligatures: normal; font-variant-caps: normal; font-weight: 400; letter-spacing: normal; orphans: 2; text-align: center; text-indent: 0px; text-transform: none; widows: 2; word-spacing: 0px; -webkit-text-stroke-width: 0px; background-color: rgb(251, 251, 251); text-decoration-thickness: initial; text-decoration-style: initial; text-decoration-color: initial; float: none; display: inline !important;&quot;&gt;Transient Data Pub-sub Messaging&lt;/span&gt;" style="rounded=0;whiteSpace=wrap;html=1;strokeColor=#000000;strokeWidth=2;fontSize=12;fontColor=#C4C4C4;" vertex="1" parent="1">
          <mxGeometry x="850" y="520" width="170" height="130" as="geometry" />
        </mxCell>
        <mxCell id="zCoC9xgb5z22_oZQfRep-34" value="3" style="ellipse;whiteSpace=wrap;html=1;aspect=fixed;fillColor=#d5e8d4;strokeColor=#82b366;fontStyle=1;strokeWidth=2;" vertex="1" parent="1">
          <mxGeometry x="467" y="617" width="30" height="30" as="geometry" />
        </mxCell>
        <mxCell id="zCoC9xgb5z22_oZQfRep-36" value="4" style="ellipse;whiteSpace=wrap;html=1;aspect=fixed;fillColor=#d5e8d4;strokeColor=#82b366;fontStyle=1;strokeWidth=2;" vertex="1" parent="1">
          <mxGeometry x="800" y="587" width="30" height="30" as="geometry" />
        </mxCell>
        <mxCell id="zCoC9xgb5z22_oZQfRep-37" value="5" style="ellipse;whiteSpace=wrap;html=1;aspect=fixed;fillColor=#d5e8d4;strokeColor=#82b366;fontStyle=1;strokeWidth=2;" vertex="1" parent="1">
          <mxGeometry x="980" y="530" width="30" height="30" as="geometry" />
        </mxCell>
        <mxCell id="zCoC9xgb5z22_oZQfRep-38" value="Second Layer Protocol" style="rounded=0;whiteSpace=wrap;html=1;strokeWidth=2;fillColor=#fff2cc;strokeColor=#d6b656;align=center;horizontal=1;verticalAlign=top;fontStyle=1;fontSize=14;" vertex="1" parent="1">
          <mxGeometry x="120" y="410" width="910" height="90" as="geometry" />
        </mxCell>
        <mxCell id="zCoC9xgb5z22_oZQfRep-39" value="State Channels" style="rounded=0;whiteSpace=wrap;html=1;strokeColor=#000000;strokeWidth=2;fontSize=12;fontColor=#000000;" vertex="1" parent="1">
          <mxGeometry x="130" y="440" width="100" height="50" as="geometry" />
        </mxCell>
        <mxCell id="zCoC9xgb5z22_oZQfRep-40" value="Plasma Protocol" style="rounded=0;whiteSpace=wrap;html=1;strokeColor=#000000;strokeWidth=2;fontSize=12;fontColor=#000000;" vertex="1" parent="1">
          <mxGeometry x="240" y="440" width="100" height="50" as="geometry" />
        </mxCell>
        <mxCell id="zCoC9xgb5z22_oZQfRep-41" value="Encrypted Storage" style="rounded=0;whiteSpace=wrap;html=1;strokeColor=#000000;strokeWidth=2;fontSize=12;fontColor=#000000;" vertex="1" parent="1">
          <mxGeometry x="350" y="440" width="100" height="50" as="geometry" />
        </mxCell>
        <mxCell id="zCoC9xgb5z22_oZQfRep-42" value="Storage&lt;br&gt;Incentivisation" style="rounded=0;whiteSpace=wrap;html=1;strokeColor=#000000;strokeWidth=2;fontSize=12;fontColor=#000000;" vertex="1" parent="1">
          <mxGeometry x="460" y="440" width="100" height="50" as="geometry" />
        </mxCell>
        <mxCell id="zCoC9xgb5z22_oZQfRep-43" value="Heavy Computation" style="rounded=0;whiteSpace=wrap;html=1;strokeColor=#000000;strokeWidth=2;fontSize=12;fontColor=#000000;" vertex="1" parent="1">
          <mxGeometry x="570" y="440" width="100" height="50" as="geometry" />
        </mxCell>
        <mxCell id="zCoC9xgb5z22_oZQfRep-44" value="Distributed Secrets Management" style="rounded=0;whiteSpace=wrap;html=1;strokeColor=#000000;strokeWidth=2;fontSize=12;fontColor=#000000;" vertex="1" parent="1">
          <mxGeometry x="680" y="440" width="100" height="50" as="geometry" />
        </mxCell>
        <mxCell id="zCoC9xgb5z22_oZQfRep-45" value="Oracles" style="rounded=0;whiteSpace=wrap;html=1;strokeColor=#000000;strokeWidth=2;fontSize=12;fontColor=#000000;" vertex="1" parent="1">
          <mxGeometry x="790" y="440" width="100" height="50" as="geometry" />
        </mxCell>
        <mxCell id="zCoC9xgb5z22_oZQfRep-46" value="&lt;font style=&quot;font-size: 24px;&quot;&gt;....&lt;/font&gt;" style="rounded=0;whiteSpace=wrap;html=1;strokeColor=#000000;strokeWidth=2;fontSize=12;fontColor=#000000;" vertex="1" parent="1">
          <mxGeometry x="900" y="440" width="100" height="50" as="geometry" />
        </mxCell>
        <mxCell id="zCoC9xgb5z22_oZQfRep-47" value="&lt;b&gt;&lt;font color=&quot;#c4c4c4&quot; style=&quot;font-size: 48px;&quot;&gt;L2&lt;/font&gt;&lt;/b&gt;" style="text;strokeColor=none;align=center;fillColor=none;html=1;verticalAlign=middle;whiteSpace=wrap;rounded=0;" vertex="1" parent="1">
          <mxGeometry x="40" y="450" width="60" height="30" as="geometry" />
        </mxCell>
        <mxCell id="zCoC9xgb5z22_oZQfRep-48" value="Protocol-extensible Developer APIs and Language" style="rounded=0;whiteSpace=wrap;html=1;strokeWidth=2;fillColor=#fff2cc;strokeColor=#d6b656;align=center;horizontal=1;verticalAlign=middle;fontSize=14;fontStyle=1" vertex="1" parent="1">
          <mxGeometry x="120" y="330" width="910" height="70" as="geometry" />
        </mxCell>
        <mxCell id="zCoC9xgb5z22_oZQfRep-49" value="&lt;b&gt;&lt;font color=&quot;#c4c4c4&quot; style=&quot;font-size: 48px;&quot;&gt;L3&lt;/font&gt;&lt;/b&gt;" style="text;strokeColor=none;align=center;fillColor=none;html=1;verticalAlign=middle;whiteSpace=wrap;rounded=0;" vertex="1" parent="1">
          <mxGeometry x="40" y="350" width="60" height="30" as="geometry" />
        </mxCell>
        <mxCell id="zCoC9xgb5z22_oZQfRep-50" value="Protocol-extensible User Interface Cradle" style="rounded=0;whiteSpace=wrap;html=1;strokeWidth=2;fillColor=#fff2cc;strokeColor=#d6b656;align=center;horizontal=1;verticalAlign=middle;fontSize=14;fontStyle=1" vertex="1" parent="1">
          <mxGeometry x="120" y="250" width="910" height="70" as="geometry" />
        </mxCell>
        <mxCell id="zCoC9xgb5z22_oZQfRep-51" value="&lt;b&gt;&lt;font color=&quot;#c4c4c4&quot; style=&quot;font-size: 48px;&quot;&gt;L4&lt;/font&gt;&lt;/b&gt;" style="text;strokeColor=none;align=center;fillColor=none;html=1;verticalAlign=middle;whiteSpace=wrap;rounded=0;" vertex="1" parent="1">
          <mxGeometry x="40" y="270" width="60" height="30" as="geometry" />
        </mxCell>
        <mxCell id="zCoC9xgb5z22_oZQfRep-52" value="7" style="ellipse;whiteSpace=wrap;html=1;aspect=fixed;fillColor=#d5e8d4;strokeColor=#82b366;fontStyle=1;strokeWidth=2;" vertex="1" parent="1">
          <mxGeometry x="1000" y="410" width="30" height="30" as="geometry" />
        </mxCell>
        <mxCell id="zCoC9xgb5z22_oZQfRep-53" value="6" style="ellipse;whiteSpace=wrap;html=1;aspect=fixed;fillColor=#d5e8d4;strokeColor=#82b366;fontStyle=1;strokeWidth=2;" vertex="1" parent="1">
          <mxGeometry x="140" y="530" width="30" height="30" as="geometry" />
        </mxCell>
        <mxCell id="zCoC9xgb5z22_oZQfRep-54" value="8" style="ellipse;whiteSpace=wrap;html=1;aspect=fixed;fillColor=#d5e8d4;strokeColor=#82b366;fontStyle=1;strokeWidth=2;" vertex="1" parent="1">
          <mxGeometry x="140" y="340" width="30" height="30" as="geometry" />
        </mxCell>
        <mxCell id="zCoC9xgb5z22_oZQfRep-55" value="9" style="ellipse;whiteSpace=wrap;html=1;aspect=fixed;fillColor=#d5e8d4;strokeColor=#82b366;fontStyle=1;strokeWidth=2;" vertex="1" parent="1">
          <mxGeometry x="140" y="260" width="30" height="30" as="geometry" />
        </mxCell>
      </root>
    </mxGraphModel>
  </diagram>
</mxfile>
